<?xml version="1.0" encoding="utf-8"?>
<!-- Generator: Adobe Illustrator 22.0.0, SVG Export Plug-In . SVG Version: 6.00 Build 0)  -->
<svg version="1.1" id="Calque_1" xmlns="http://www.w3.org/2000/svg" xmlns:xlink="http://www.w3.org/1999/xlink" x="0px" y="0px"
	 viewBox="0 0 560.6 71.9" style="enable-background:new 0 0 560.6 71.9;" xml:space="preserve">
<style type="text/css">
	.st0{display:none;}
	.st1{display:inline;fill:none;}
	.st2{display:inline;fill:none;stroke:#FF0808;stroke-width:0.5;stroke-miterlimit:10;}
	.st3{fill:none;stroke:#32FF00;stroke-width:0.5;stroke-miterlimit:10;}
</style>
<g id="Calque_1_1_" class="st0">
	<rect x="-62.7" y="-78.6" class="st1" width="99.4" height="17.6"/>
	<text transform="matrix(1 0 0 1 -62.6855 -70.1088)" style="display:inline; font-family:'ArialMT'; font-size:12px;">ANADYOMENE</text>
</g>
<g id="Calque_2_1_">
	<path d="M26.9,10.6L4.2,61h9.6l5-11.7l0,0l3.2-7.4l8-18.7V10.6H26.9z M36.1,10.6H33v12.7L41,42l0,0l7.4,17.2l0.8,1.8H59L36.1,10.6z
		"/>
	<path d="M65.3,20.4V61h9.3V31.8L65.3,20.4z M102.4,61h7.7V10.6h-9.3v34.1L75.9,14.1L73,10.6h-7.7l0.2,5.1L102.4,61z"/>
	<path d="M142.4,10.6h-3.2L116.5,61h9.6l5-11.7h0.1l3.2-7.4h-0.1l8.1-18.7L142.4,10.6L142.4,10.6z M148.4,10.6h-3.1v12.7L161.4,61
		h9.7L148.4,10.6z"/>
	<path d="M528.3,53.1V61H554v-7.8h-25.7V53.1z M528.3,10.6v7.8H553v-7.8C553,10.6,528.3,10.6,528.3,10.6z M528.3,31.5v7.7h21.6v-7.7
		H528.3z M516.2,10.6V61h9.2V10.6H516.2z"/>
	<path d="M177.6,10.6V61h9.4V10.6H177.6z M223.6,22.5c-2.3-3.8-5.5-6.8-9.7-8.9s-9-3.1-14.3-3.1h-9.8v7.9h9.3c3.7,0,6.9,0.7,9.8,2.1
		c2.8,1.4,5,3.4,6.5,6s2.3,5.7,2.3,9.1c0,3.5-0.8,6.5-2.3,9.1s-3.7,4.6-6.5,6s-6.1,2.1-9.8,2.1h-9.3V61h9.8c5.4,0,10.2-1,14.3-3.1
		c4.2-2.1,7.4-5,9.7-8.9c2.3-3.8,3.5-8.2,3.5-13.2S225.9,26.4,223.6,22.5z"/>
	<path d="M267.1,10.6L254,32.1l4.6,7.7l17.7-29.2C276.3,10.6,267.1,10.6,267.1,10.6z M256.6,43.2l-19.2-32.6h-10l19.8,32.8V61h9.4
		V43.2z"/>
	<path d="M294.8,20.3c2.3-1.3,4.8-2,7.6-2.2V9.9c-4.6,0.2-8.7,1.3-12.4,3.3c-4.1,2.2-7.4,5.3-9.7,9.3c-2.3,4-3.5,8.4-3.5,13.3
		s1.2,9.3,3.5,13.3s5.6,7,9.7,9.3c3.7,2,7.9,3.1,12.4,3.3v-8.2c-2.8-0.2-5.3-0.9-7.6-2.2c-2.7-1.5-4.8-3.6-6.3-6.3s-2.3-5.8-2.3-9.1
		c0-3.4,0.8-6.4,2.3-9.1C290,23.9,292.1,21.8,294.8,20.3z M327.5,22.4c-2.3-3.9-5.6-7-9.7-9.2c-3.7-2-7.9-3.1-12.4-3.3v8.2
		c2.8,0.2,5.3,0.9,7.6,2.2c2.7,1.5,4.8,3.6,6.3,6.3s2.3,5.8,2.3,9.1c0,3.4-0.8,6.4-2.3,9.1c-1.5,2.7-3.7,4.8-6.3,6.3
		c-2.3,1.3-4.8,2-7.6,2.2v8.2c4.6-0.2,8.7-1.3,12.4-3.3c4.1-2.2,7.4-5.3,9.7-9.3c2.4-3.9,3.5-8.4,3.5-13.3
		C331,30.8,329.8,26.4,327.5,22.4z"/>
	<path d="M396,18.4l-8.9,14.9l0.1,27.6h8.9L396,18.4z M396,10.6h-7.7L370,41.8l-1.3,2.2l-1.6-2.7l-18.4-30.8H341V61h8.9V28
		l16.6,27.2h4.2L396,10.6z"/>
	<path d="M421.8,53.1V61h25.7v-7.8h-25.7V53.1z M421.8,10.6v7.8h24.7v-7.8C446.5,10.6,421.8,10.6,421.8,10.6z M421.8,31.5v7.7h21.6
		v-7.7H421.8z M409.7,10.6V61h9.2V10.6H409.7z"/>
	<path d="M464.5,10.6h-6.6V61h9.3V26.8l11.7,14.3l2.9,3.6L495,61h7.7v-4.7L464.5,10.6z M493.4,10.6v29.3l9.3,11.2V10.6H493.4z"/>
	<g class="st0">
		<polyline class="st2" points="361.8,70.3 387.1,27.6 396,12.7 415.6,-20.3 		"/>
		<polyline class="st2" points="364.3,71.8 387.2,33.3 396,18.4 418.1,-18.8 		"/>
	</g>
	<path class="st3" d="M53.2,5.6"/>
	<path class="st3" d="M55.5,3.7"/>
</g>
<g id="Calque_3">
</g>
</svg>
