<svg xmlns="http://www.w3.org/2000/svg" viewBox="0 0 366.61 417.1"><defs><style>.cls-1{fill:#222221;}.cls-2{fill:#fff;}.cls-3{fill:none;stroke:#fff;stroke-miterlimit:10;stroke-width:4px;}</style></defs><title>logo</title><g id="Calque_1" data-name="Calque 1"><polygon class="cls-1" points="183.3 0 251.96 104.36 320.62 208.73 183.3 208.73 45.99 208.73 114.65 104.36 183.3 0"/><polygon class="cls-1" points="91.65 69.41 137.48 139.07 183.3 208.73 91.65 208.73 0 208.73 45.83 139.07 91.65 69.41"/><polygon class="cls-1" points="274.96 69.41 320.78 139.07 366.61 208.37 274.96 208.73 183.3 208.73 229.13 139.07 274.96 69.41"/><polygon class="cls-1" points="183.3 417.1 251.96 312.73 320.62 208.37 183.3 208.37 45.99 208.37 114.65 312.73 183.3 417.1"/><polygon class="cls-1" points="91.65 347.69 137.48 278.03 183.3 208.37 91.65 208.37 0 208.73 45.83 278.03 91.65 347.69"/><polygon class="cls-1" points="274.96 347.69 320.78 278.03 366.61 208.37 274.96 208.37 183.3 208.37 229.13 278.03 274.96 347.69"/><circle class="cls-2" cx="252.11" cy="202.93" r="5.8"/><circle class="cls-2" cx="113.39" cy="202.93" r="5.8"/><polygon class="cls-3" points="347.15 209.08 322.11 246.75 275.88 316.29 252.67 281.39 183.4 385.58 114.13 281.39 90.93 316.29 44.68 246.75 18.44 209.38 44.68 169.99 90.93 100.45 114.13 135.34 183.4 31.16 252.67 135.34 275.88 100.45 322.11 169.99 347.15 209.08"/></g><g id="Calque_2" data-name="Calque 2"><path class="cls-2" d="M235.73,260.14l-.67.7q-6.56-.42-20.41-.42-14.18,0-20.41.42l-.66-.63v-4.77l.73-.7a70.64,70.64,0,0,0,7.75-.7,3,3,0,0,0,2.26-2.6q.85-5,.86-21.73V212.82q-3.37-.34-21.47-.35-16.69,0-22,.35v16.89q0,16.69.86,21.73a3,3,0,0,0,2.25,2.6,71.29,71.29,0,0,0,7.76.7l.66.7v4.7l-.6.7q-6.63-.42-20.41-.42-14.25,0-20.41.42l-.66-.63v-4.77l.66-.7a71.29,71.29,0,0,0,7.76-.7,3,3,0,0,0,2.25-2.6q.85-5,.86-21.73V192.63q0-16.68-.86-21.73a3,3,0,0,0-2.25-2.59,67.26,67.26,0,0,0-7.76-.71l-.66-.7v-4.76l.66-.63q6.36.42,20.41.42,14.39,0,20.41-.42l.6.63V167l-.66.63a67.26,67.26,0,0,0-7.76.71,3,3,0,0,0-2.25,2.59q-.85,5-.86,21.73V204.2q7,.35,19.35.35,19.35,0,24.12-.35V192.63q0-16.68-.86-21.73a3,3,0,0,0-2.26-2.59,66.65,66.65,0,0,0-7.75-.71l-.73-.7v-4.76l.66-.63q6.44.42,20.41.42,14.44,0,20.41-.42l.67.63V167l-.6.63a65.17,65.17,0,0,0-7.82.71,3,3,0,0,0-2.25,2.59q-.87,5-.86,21.73v37.08q0,16.69.86,21.73a3,3,0,0,0,2.25,2.6,71,71,0,0,0,7.75.7l.67.7Z" transform="translate(0 -4)"/></g></svg>